<svg width="24" height="24" viewBox="0 0 24 24" fill="none" xmlns="http://www.w3.org/2000/svg">
<path fill-rule="evenodd" clip-rule="evenodd" d="M14.9559 4.36819C14.4729 3.83143 13.6377 3.775 13.0063 4.40634L3.40634 14.0063C3.39394 14.0187 3.38122 14.0308 3.36819 14.0425C2.83143 14.5256 2.775 15.3608 3.40634 15.9921L7.70634 20.2921C8.09686 20.6826 8.09686 21.3158 7.70634 21.7063C7.31581 22.0969 6.68265 22.0969 6.29212 21.7063L1.99212 17.4063C0.630067 16.0443 0.567601 13.8937 2.00917 12.5751L11.5921 2.99212C12.9542 1.63007 15.1047 1.5676 16.4234 3.00918L22.0063 8.59212C23.3684 9.95418 23.4309 12.1047 21.9893 13.4234L13.7063 21.7063C13.3158 22.0969 12.6826 22.0969 12.2921 21.7063C11.9016 21.3158 11.9016 20.6826 12.2921 20.2921L20.5921 11.9921C20.6045 11.9797 20.6172 11.9677 20.6303 11.9559C21.167 11.4729 21.2235 10.6377 20.5921 10.0063L14.9921 4.40634C14.9797 4.39394 14.9677 4.38122 14.9559 4.36819Z" fill="white"/>
<path fill-rule="evenodd" clip-rule="evenodd" d="M6 21C6 20.4477 6.44772 20 7 20H22C22.5523 20 23 20.4477 23 21C23 21.5523 22.5523 22 22 22H7C6.44772 22 6 21.5523 6 21Z" fill="white"/>
<path fill-rule="evenodd" clip-rule="evenodd" d="M4.29289 10.2929C4.68342 9.90237 5.31658 9.90237 5.70711 10.2929L14.7071 19.2929C15.0976 19.6834 15.0976 20.3166 14.7071 20.7071C14.3166 21.0976 13.6834 21.0976 13.2929 20.7071L4.29289 11.7071C3.90237 11.3166 3.90237 10.6834 4.29289 10.2929Z" fill="white"/>
</svg>
