<svg width="24" height="24" viewBox="0 0 24 24" fill="none" xmlns="http://www.w3.org/2000/svg">
<path fill-rule="evenodd" clip-rule="evenodd" d="M6.34367 17.6574C5.95315 17.2669 5.95315 16.6337 6.34367 16.2432L16.2432 6.34367C16.6337 5.95315 17.2669 5.95315 17.6574 6.34367C18.0479 6.7342 18.0479 7.36736 17.6574 7.75789L7.75789 17.6574C7.36736 18.0479 6.7342 18.0479 6.34367 17.6574Z" fill="white"/>
<path fill-rule="evenodd" clip-rule="evenodd" d="M6.34367 6.34367C6.7342 5.95315 7.36736 5.95315 7.75789 6.34367L17.6574 16.2432C18.0479 16.6337 18.0479 17.2669 17.6574 17.6574C17.2669 18.0479 16.6337 18.0479 16.2432 17.6574L6.34367 7.75789C5.95315 7.36736 5.95315 6.7342 6.34367 6.34367Z" fill="white"/>
</svg>
