<svg width="45" height="45" viewBox="0 0 45 45" fill="none" xmlns="http://www.w3.org/2000/svg">
<path d="M43.0146 5.03906C43.1251 5.03906 43.2148 5.1288 43.2148 5.23926V39.8389C43.2148 39.9493 43.1251 40.0391 43.0146 40.0391H2.34473C2.23427 40.0391 2.14453 39.9493 2.14453 39.8389V5.23926C2.14453 5.1288 2.23427 5.03906 2.34473 5.03906H43.0146ZM4.56738 6.95703C4.45693 6.95703 4.36719 7.04677 4.36719 7.15723V32.7529C4.36719 32.8634 4.45693 32.9531 4.56738 32.9531H40.7881C40.8985 32.9531 40.9883 32.8634 40.9883 32.7529V7.15723C40.9883 7.04677 40.8985 6.95703 40.7881 6.95703H4.56738Z" fill="white"/>
</svg>
