<svg width="21" height="24" viewBox="0 0 21 24" fill="none" xmlns="http://www.w3.org/2000/svg">
<path fill-rule="evenodd" clip-rule="evenodd" d="M12.1438 3.87868C12.6361 3.31607 13.3038 3 14 3C14.6962 3 15.3639 3.31607 15.8562 3.87868C16.3484 4.44129 16.625 5.20435 16.625 6V11C16.625 11.5523 16.2332 12 15.75 12C15.2668 12 14.875 11.5523 14.875 11V6C14.875 5.73478 14.7828 5.48043 14.6187 5.29289C14.4546 5.10536 14.2321 5 14 5C13.7679 5 13.5454 5.10536 13.3813 5.29289C13.2172 5.48043 13.125 5.73478 13.125 6C13.125 6.55228 12.7332 7 12.25 7C11.7668 7 11.375 6.55228 11.375 6C11.375 5.20435 11.6516 4.44129 12.1438 3.87868Z" fill="white"/>
<path fill-rule="evenodd" clip-rule="evenodd" d="M8.64385 1.87868C9.13613 1.31607 9.80381 1 10.5 1C11.1962 1 11.8639 1.31607 12.3562 1.87868C12.8484 2.44129 13.125 3.20435 13.125 4V10C13.125 10.5523 12.7332 11 12.25 11C11.7668 11 11.375 10.5523 11.375 10V4C11.375 3.73478 11.2828 3.48043 11.1187 3.29289C10.9546 3.10536 10.7321 3 10.5 3C10.2679 3 10.0454 3.10536 9.88128 3.29289C9.71719 3.48043 9.625 3.73478 9.625 4V6C9.625 6.55228 9.23325 7 8.75 7C8.26675 7 7.875 6.55228 7.875 6V4C7.875 3.20435 8.15156 2.44129 8.64385 1.87868Z" fill="white"/>
<path fill-rule="evenodd" clip-rule="evenodd" d="M5.14384 3.87868C5.63613 3.31607 6.30381 3 7 3C7.69619 3 8.36387 3.31607 8.85615 3.87868C9.34844 4.44129 9.625 5.20435 9.625 6V10.5C9.625 11.0523 9.23325 11.5 8.75 11.5C8.26675 11.5 7.875 11.0523 7.875 10.5V6C7.875 5.73478 7.78281 5.48043 7.61872 5.29289C7.45462 5.10536 7.23206 5 7 5C6.76794 5 6.54538 5.10536 6.38128 5.29289C6.21719 5.48043 6.125 5.73478 6.125 6V14C6.125 14.5523 5.73325 15 5.25 15C4.76675 15 4.375 14.5523 4.375 14V6C4.375 5.20435 4.65156 4.44129 5.14384 3.87868Z" fill="white"/>
<path fill-rule="evenodd" clip-rule="evenodd" d="M17.4986 7C17.2666 7 17.044 7.10536 16.8799 7.29289C16.7158 7.48043 16.6236 7.73478 16.6236 8C16.6236 8.55228 16.2319 9 15.7486 9C15.2654 9 14.8736 8.55228 14.8736 8C14.8736 7.20435 15.1502 6.44129 15.6425 5.87868C16.1348 5.31607 16.8024 5 17.4986 5C18.1948 5 18.8625 5.31607 19.3548 5.87868C19.8471 6.44129 20.1236 7.20435 20.1236 8V14C20.1236 16.3869 19.2939 18.6761 17.8171 20.364C16.3402 22.0518 14.3372 23 12.2486 23H10.4986C7.81342 23 6.10544 22.0322 4.64074 20.3695C4.64005 20.3687 4.63935 20.3679 4.63866 20.3671L1.48866 16.7671C1.47814 16.7551 1.4679 16.7428 1.45794 16.7302C1.00635 16.1586 0.764396 15.4104 0.782164 14.6406C0.799931 13.8707 1.07606 13.1382 1.55338 12.5946C2.03071 12.051 2.67266 11.738 3.34633 11.7205C4.01999 11.7029 4.67378 11.982 5.17231 12.5002C5.18255 12.5108 5.19256 12.5217 5.20234 12.5329L6.74235 14.2929C7.08405 14.6834 7.08405 15.3166 6.74235 15.7071C6.40064 16.0976 5.84662 16.0976 5.50491 15.7071L3.9821 13.9668C3.81762 13.8024 3.6051 13.7142 3.38628 13.7199C3.16172 13.7258 2.94774 13.8301 2.78863 14.0113C2.62952 14.1925 2.53748 14.4367 2.53156 14.6933C2.5258 14.9429 2.60192 15.1856 2.74457 15.374L5.87401 18.9505C5.87436 18.9509 5.87471 18.9513 5.87506 18.9517C7.01759 20.2483 8.28451 21 10.4986 21H12.2486C13.8731 21 15.431 20.2625 16.5797 18.9497C17.7283 17.637 18.3736 15.8565 18.3736 14V8C18.3736 7.73478 18.2814 7.48043 18.1173 7.29289C17.9533 7.10536 17.7307 7 17.4986 7Z" fill="white"/>
</svg>
