<svg width="41" height="45" viewBox="0 0 41 45" fill="none" xmlns="http://www.w3.org/2000/svg">
<path fill-rule="evenodd" clip-rule="evenodd" d="M23.6022 5.8039C24.5382 4.66959 25.8077 4.03233 27.1314 4.03233C28.4552 4.03233 29.7247 4.66959 30.6607 5.8039C31.5967 6.93821 32.1226 8.47667 32.1226 10.0808V14.0923V20.1617C32.1226 21.2752 31.3777 22.1778 30.4589 22.1778C29.54 22.1778 28.7952 21.2752 28.7952 20.1617V14.1342V14.0771V10.0808C28.7952 9.54612 28.6199 9.0333 28.3079 8.65519C27.9959 8.27709 27.5727 8.06467 27.1314 8.06467C26.6902 8.06467 26.267 8.27709 25.955 8.65519C25.643 9.0333 25.4677 9.54612 25.4677 10.0808C25.4677 11.1943 24.7229 12.097 23.804 12.097C22.8852 12.097 22.1403 11.1943 22.1403 10.0808C22.1403 8.47667 22.6661 6.93821 23.6022 5.8039Z" fill="white"/>
<path fill-rule="evenodd" clip-rule="evenodd" d="M16.9473 1.77157C17.8833 0.637251 19.1528 0 20.4766 0C21.8003 0 23.0698 0.637251 24.0058 1.77157C24.9419 2.90588 25.4677 4.44434 25.4677 6.0485V18.1455C25.4677 19.259 24.7229 20.1617 23.804 20.1617C22.8852 20.1617 22.1403 19.259 22.1403 18.1455V6.0485C22.1403 5.51378 21.965 5.00096 21.653 4.62286C21.341 4.24475 20.9178 4.03233 20.4766 4.03233C20.0353 4.03233 19.6122 4.24475 19.3002 4.62286C18.9882 5.00096 18.8129 5.51378 18.8129 6.0485V10.0808C18.8129 11.1943 18.068 12.097 17.1492 12.097C16.2303 12.097 15.4854 11.1943 15.4854 10.0808V6.0485C15.4854 4.44434 16.0113 2.90588 16.9473 1.77157Z" fill="white"/>
<path fill-rule="evenodd" clip-rule="evenodd" d="M10.2925 5.8039C11.2285 4.66959 12.498 4.03233 13.8217 4.03233C15.1455 4.03233 16.415 4.66959 17.351 5.8039C18.287 6.93821 18.8129 8.47667 18.8129 10.0808V19.1536C18.8129 20.2671 18.068 21.1698 17.1492 21.1698C16.2303 21.1698 15.4854 20.2671 15.4854 19.1536V10.0808C15.4854 9.54612 15.3102 9.0333 14.9981 8.65519C14.6861 8.27709 14.263 8.06467 13.8217 8.06467C13.3805 8.06467 12.9573 8.27709 12.6453 8.65519C12.3333 9.0333 12.158 9.54612 12.158 10.0808V25.3752V26.2102C12.158 27.3237 11.4131 28.2263 10.4943 28.2263C9.57546 28.2263 8.83059 27.3237 8.83059 26.2102V10.0808C8.83059 8.47667 9.35643 6.93821 10.2925 5.8039Z" fill="white"/>
<path fill-rule="evenodd" clip-rule="evenodd" d="M33.7862 12.097C33.345 12.097 32.9218 12.3094 32.6098 12.6875C32.3018 13.0607 32.1271 13.5651 32.1226 14.0923C32.1225 14.0993 32.1225 14.1062 32.1225 14.1132C32.1225 15.2267 31.3776 16.1293 30.4588 16.1293C29.5457 16.1293 28.8045 15.238 28.7952 14.1342C28.7951 14.1272 28.7951 14.1202 28.7951 14.1132C28.7951 14.1011 28.7951 14.0891 28.7952 14.0771C28.803 12.4859 29.3279 10.962 30.2569 9.83624C31.193 8.70192 32.4625 8.06467 33.7862 8.06467C35.1099 8.06467 36.3795 8.70192 37.3155 9.83624C38.2515 10.9705 38.7773 12.509 38.7773 14.1132V26.2102C38.7773 31.0227 37.1998 35.638 34.3917 39.041C31.5837 42.4439 27.7751 44.3557 23.8039 44.3557H20.4765C15.3709 44.3557 12.1233 42.4044 9.33839 39.0521C9.33707 39.0505 9.33575 39.0489 9.33442 39.0473L3.34505 31.7891C3.32507 31.7649 3.30559 31.7401 3.28665 31.7146C2.42801 30.5622 1.96795 29.0538 2.00174 27.5017C2.03552 25.9496 2.56055 24.4726 3.46813 23.3767C4.3757 22.2807 5.5963 21.6497 6.8772 21.6142C8.1581 21.5788 9.4012 22.1416 10.3491 23.1863C10.3686 23.2077 10.3876 23.2297 10.4062 23.2522L12.158 25.3752L13.3343 26.8007C13.9841 27.5881 13.9841 28.8646 13.3343 29.652C12.6846 30.4394 11.6312 30.4394 10.9815 29.652L8.08606 26.1432C7.77331 25.8119 7.36922 25.634 6.95316 25.6455C6.52619 25.6573 6.11933 25.8677 5.8168 26.233C5.51428 26.5983 5.33927 27.0906 5.32801 27.608C5.31706 28.1112 5.4618 28.6006 5.73303 28.9804L11.6833 36.1912L11.6853 36.1936C13.8577 38.8077 16.2666 40.3233 20.4765 40.3233H23.8039C26.8926 40.3233 29.8548 38.8364 32.0389 36.1897C34.2229 33.543 35.4499 29.9532 35.4499 26.2102V14.1132C35.4499 13.5785 35.2746 13.0656 34.9626 12.6875C34.6506 12.3094 34.2274 12.097 33.7862 12.097Z" fill="white"/>
</svg>
